# FreeCAD v1.1 build0 Arch module
# https://www.freecad.org
mtllib LA4078.mtl
o NONE
usemtl color_727980
v -20.341652 -14.322525 10.646484
v -19.354906 -15.823642 10.774918
v -20.862219 -13.775623 10.774918
v -17.754589 -16.337292 9.884091
v -17.652018 -17.703283 10.774918
v -20.341652 -12.119523 9.449944
v -22.156803 -11.579123 10.774918
v -22.762503 -8.02782 9.89317
v -23.223486 -9.255793 10.774918
v -24.049257 -6.828855 10.774918
v -15.022453 -18.305906 9.452242
v -15.553779 -19.57243 10.774918
v -13.266543 -21.189592 10.774918
v -17.754589 -14.057199 8.508698
v -20.341652 -9.817457 8.457264
v -22.762503 -5.782507 9.268233
v -24.623419 -4.322878 10.774918
v -12.167567 -20.186537 9.347514
v -10.820717 -22.536905 10.774918
v -15.022453 -15.978765 7.900812
v -17.754589 -11.662202 7.344858
v -20.341652 -7.435143 7.676559
v -9.21326 -21.938459 9.560743
v -8.248261 -23.60013 10.774918
v -22.762503 -3.489928 8.848642
v -24.937719 -1.763551 10.774918
v -12.167567 -17.842249 7.626657
v -15.022453 -13.52101 6.565905
v -17.754589 -9.171877 6.402086
v -6.183671 -23.522816 10.077217
v -5.582276 -24.368795 10.774918
v -20.341652 -4.992053 7.114211
v -9.21326 -19.60627 7.680785
v -22.762503 -1.168823 8.637827
v -24.997446 -0.357297 10.774918
v -12.167567 -15.352119 6.124565
v -15.022453 -10.952736 5.458433
v -17.754589 -6.606582 5.688088
v -6.183671 -21.230799 8.052052
v -20.341652 -2.508158 6.774816
v -9.21326 -17.113817 6.019149
v -22.762503 1.161836 8.637511
v -24.978519 1.036152 10.774918
v -24.884584 2.399473 10.774918
v -12.167567 -12.7365 4.853515
v -15.022453 -8.294933 4.587449
v -3.103554 -22.677925 8.72384
v -2.856563 -24.836266 10.774918
v -17.754589 -3.987284 5.208701
v -6.183671 -18.76524 6.242174
v -20.341652 -0.003762 6.661148
v -9.21326 -14.481478 4.589417
v -22.762503 3.482999 8.847696
v -24.712172 3.782663 10.774918
v -12.167567 -10.016772 3.823896
v 0.001922 -23.91256 9.674385
v -0.105186 -24.999779 10.774918
v 2.46727 -24.877954 10.774918
v -15.022453 -5.569328 3.960071
v -3.103554 -20.267126 6.780515
v -17.754589 -1.335394 4.967842
v -6.183671 -16.146294 4.662377
v -20.341652 2.500666 6.774136
v -9.21326 -11.730765 3.403275
v -22.762503 5.775691 9.266665
v -24.14237 6.49199 10.774918
v -12.167567 -7.215167 3.044127
v 0.001922 -21.582565 7.615666
v -15.022453 -2.798198 3.581429
v -3.103554 -17.690662 5.062871
v -17.754589 1.327411 4.967481
v -6.183671 -13.395366 3.325575
v -20.341652 4.984653 7.112857
v -9.21326 -8.884165 2.470421
v 3.107383 -22.677694 8.724099
v 5.014614 -24.491909 10.774918
v -22.762503 8.021173 9.890993
v -23.747318 7.8144 10.774918
v -23.273184 9.13011 10.774918
v -12.167567 -4.354585 2.520579
v 0.001922 -19.076155 5.775801
v -15.022453 -0.004197 3.454616
v -3.103554 -14.969596 3.584947
v -17.754589 3.979367 5.20762
v -6.183671 -10.534945 2.242695
v 6.187452 -23.522335 10.077714
v 7.501484 -23.848013 10.774918
v -20.341652 7.427895 7.674543
v -9.21326 -5.964946 1.798477
v 3.107383 -20.26692 6.780795
v -12.167567 -1.458408 2.257533
v 0.001922 -16.413816 4.169829
v -15.022453 2.78984 3.58067
v -3.103554 -12.126166 2.358826
v -17.754589 6.598794 5.686297
v -6.183671 -7.588411 1.422587
v 6.187452 -21.230364 8.05259
v -20.341652 9.810421 8.454601
v -22.112551 11.66341 10.774918
v -9.21326 -2.996969 1.392938
v 3.107383 -17.690483 5.063168
v -12.167567 1.44969 2.257138
v 0.001922 -13.617311 2.810878
v -15.022453 5.561072 3.958561
v -3.103554 -9.183619 1.394527
v 9.216964 -21.937777 9.561516
v 9.902475 -22.955194 10.774918
v 12.193364 -21.824799 10.774918
v -17.754589 9.164284 6.399599
v -6.183671 -4.57985 0.871956
v 6.187452 -18.764856 6.242749
v -20.341652 12.112757 9.446656
v -20.672228 14.059126 10.774918
v -9.21326 -0.004495 1.257117
v 3.107383 -14.969444 3.58526
v -12.167567 4.345938 2.519399
v 0.001922 -10.709496 1.710055
v -15.022453 8.286848 4.585199
v -3.103554 -6.166003 0.699935
v 9.216964 -19.605659 7.681616
v -17.754589 11.654863 7.341695
v -6.183671 -1.533852 0.595302
v 6.187452 -16.145964 4.662985
v -9.21326 2.988016 1.392126
v 3.107383 -12.126044 2.35915
v -12.167567 7.206662 3.04217
v 0.001922 -7.714141 0.876359
v 12.171164 -20.185684 9.348573
v 14.351339 -20.470444 10.774918
v -15.022453 10.944886 5.455462
v -3.103554 -3.097986 0.280726
v 9.216964 -17.113285 6.020031
v -17.754589 14.050176 8.504885
v -18.967695 16.285776 10.774918
v -6.183671 1.524683 0.594887
v 6.187452 -13.395092 3.32621
v -9.21326 5.956103 1.79686
v 3.107383 -9.183525 1.394862
v -12.167567 10.008479 3.82118
v 0.001922 -4.655732 0.316605
v 12.171164 -17.841496 7.627789
v -15.022453 13.513461 6.562238
v -3.103554 -0.004646 0.140328
v 9.216964 -14.481028 4.590343
v -17.754589 16.330643 9.87966
v -17.018017 18.313576 10.774918
v -6.183671 4.570755 0.870714
v 6.187452 -10.53473 2.243352
v -9.21326 8.875504 2.468011
v 3.107383 -6.16594 0.700277
v 15.025911 -18.304913 9.453596
v 16.355207 -18.907862 10.774918
v -12.167567 12.728486 4.85006
v 0.001922 -1.559266 0.035367
v 12.171164 -15.35147 6.12576
v -15.022453 15.971577 7.896478
v -3.103554 3.088732 0.279887
v 9.216964 -11.7304 3.404239
v -6.183671 7.579467 1.420529
v 6.187452 -7.588256 1.423261
v -9.21326 11.722358 3.400094
v 3.107383 -3.097955 0.281072
v 15.025911 -15.977897 7.90225
v -12.167567 15.34445 6.1204
v 0.001922 1.549945 0.034946
v 12.171164 -12.735961 4.854764
v -15.022453 18.299141 9.447276
v -15.072902 19.945116 10.774918
v -3.103554 6.156862 0.698264
v 9.216964 -8.883889 2.471413
v -6.183671 10.526223 2.239837
v 6.187452 -4.579756 0.872641
v 17.757883 -16.336191 9.885743
v 18.185591 -17.154716 10.774918
v 19.994566 -15.007241 10.774918
v -9.21326 14.473392 4.585489
v 3.107383 -0.004646 0.140675
v 15.025911 -13.520277 6.567416
v -12.167567 17.834988 7.621817
v 0.001922 4.646487 0.315343
v 12.171164 -10.016348 3.825189
v -3.103554 9.174665 1.392037
v 9.216964 -5.96476 1.799491
v -6.183671 13.386937 3.321942
v 6.187452 -1.533821 0.595993
v 17.757883 -14.056251 8.510442
v -9.21326 17.106119 6.014507
v 3.107383 3.0887 0.280233
v 15.025911 -10.952142 5.460004
v -12.167567 20.179743 9.342038
v -12.966665 21.374414 10.774918
v -10.719886 22.585041 10.774918
v 0.001922 7.705049 0.874268
v 12.171164 -7.214861 3.045453
v -3.103554 12.117476 2.355537
v 9.216964 -2.996876 1.393964
v -6.183671 16.138227 4.657998
v 6.187452 1.524652 0.595578
v 17.757883 -11.661415 7.346681
v -9.21326 19.599022 7.675467
v 3.107383 6.156799 0.698605
v 15.025911 -8.294483 4.589067
v 0.001922 10.700629 1.707151
v 12.171164 -4.3544 2.521927
v -3.103554 14.961237 3.580887
v 9.216964 -0.004495 1.258147
v 20.344753 -12.118529 9.451989
v 21.546835 -12.678086 10.774918
v -6.183671 18.757603 6.237084
v 6.187452 4.570662 0.871399
v 17.757883 -9.171259 6.403973
v -9.21326 21.931721 9.554792
v -8.354829 23.562614 10.774918
v 3.107383 9.174573 1.392372
v 15.025911 -5.569026 3.961723
v 0.001922 13.608742 2.807184
v 12.171164 -1.458346 2.258892
v -3.103554 17.682705 5.058072
v 9.216964 2.987923 1.393152
v 20.344753 -9.816652 8.459391
v -6.183671 21.223652 8.046292
v 6.187452 7.579312 1.421203
v 17.757883 -6.606136 5.690023
v 3.107383 12.117353 2.355861
v 15.025911 -2.798047 3.583101
v 0.001922 16.405617 4.165377
v 12.171164 1.449629 2.258497
v 22.765385 -10.206504 10.720682
v 22.825407 -10.198078 10.774918
v 23.360298 -8.904857 10.774918
v -3.103554 20.259634 6.775017
v 9.216964 5.955918 1.797873
v 20.344753 -7.434533 7.67875
v -6.183671 23.51622 10.070835
v -5.895248 24.294979 10.774918
v -3.366162 24.772343 10.774918
v 6.187452 10.526008 2.240495
v 17.757883 -3.987015 5.210668
v 3.107383 14.961085 3.581199
v 15.025911 -0.004196 3.456296
v 0.001922 19.068392 5.770627
v 12.171164 4.345754 2.520747
v 22.765385 -8.027027 9.895589
v 23.816961 -7.599498 10.774918
v -3.103554 22.670959 8.717688
v -0.793617 24.9874 10.774918
v 9.216964 8.875229 2.469004
v 20.344753 -4.991643 7.116448
v 6.187452 13.386664 3.322577
v 17.757883 -1.335304 4.969825
v 3.107383 17.682526 5.05837
v 15.025911 2.789688 3.582343
v 0.001922 21.5753 7.609811
v 12.171164 7.206357 3.043496
v 22.765385 -5.781936 9.270713
v 24.204319 -6.257068 10.774918
v 24.511963 -4.915659 10.774918
v 9.216964 11.721993 3.401058
v 20.344753 -2.507952 6.777081
v 6.187452 16.137897 4.658606
v 17.757883 1.327322 4.969464
v 3.107383 20.259428 6.775297
v 15.025911 5.56077 3.960213
v 0.001922 23.905853 9.667898
v 1.969085 24.922333 10.774918
v 12.171164 10.008056 3.822473
v 22.765385 -3.489584 8.851164
v 24.881983 -2.426308 10.774918
v 9.216964 14.472941 4.586416
v 20.344753 -0.003761 6.663422
v 6.187452 18.757219 6.237659
v 17.757883 3.979099 5.209587
v 3.107383 22.670731 8.717948
v 4.706812 24.552921 10.774918
v 15.025911 8.286398 4.586817
v 12.171164 12.727947 4.851309
v 22.765385 -1.168708 8.640369
v 25.0 0.0 10.774918
v 9.216964 17.105589 6.015389
v 20.344753 2.500461 6.776401
v 6.187452 21.223219 8.046831
v 17.757883 6.59835 5.688232
v 15.025911 10.944292 5.457034
v 12.171164 15.343801 6.121596
v 22.765385 1.161722 8.640054
v 24.866461 2.580528 10.774918
v 9.216964 19.598413 7.676298
v 20.344753 4.984244 7.115095
v 6.187452 23.515738 10.071333
v 7.395805 23.880999 10.774918
v 17.757883 9.163666 6.401485
v 15.025911 13.512728 6.563748
v 12.171164 17.834234 7.62295
v 22.765385 3.482655 8.850218
v 24.44688 5.22973 10.774918
v 9.216964 21.93104 9.555565
v 10.002131 22.911949 10.774918
v 20.344753 7.427285 7.676734
v 17.757883 11.654078 7.343518
v 15.025911 15.97071 7.897916
v 12.171164 20.178888 9.343098
v 12.492414 21.655012 10.774918
v 14.834279 20.123224 10.774918
v 22.765385 5.775121 9.269146
v 23.78134 7.710243 10.774918
v 20.344753 9.809616 8.456729
v 17.757883 14.049229 8.506629
v 15.025911 18.298147 9.44863
v 16.996773 18.333296 10.774918
v 22.765385 8.020381 9.893412
v 22.867756 10.102758 10.774918
v 20.344753 12.111763 9.448702
v 17.757883 16.329542 9.881312
v 18.765316 16.518564 10.774918
v 22.765385 10.200082 10.717914
v 21.71767 12.383166 10.774918
v 20.344753 14.314908 10.644547
v 20.344889 14.528782 10.774918
v -3.366162 24.772343 12.5
v 1.969085 24.922333 12.5
v -0.793617 24.9874 12.5
v -8.354829 23.562614 12.5
v -5.895248 24.294979 12.5
v 10.002131 22.911949 12.5
v 7.395805 23.880999 12.5
v 4.706812 24.552921 12.5
v -12.966665 21.374414 12.5
v -10.719886 22.585041 12.5
v 16.996773 18.333296 12.5
v 14.834279 20.123224 12.5
v 12.492414 21.655012 12.5
v -18.967695 16.285776 12.5
v -15.072902 19.945116 12.5
v -17.018017 18.313576 12.5
v 21.71767 12.383166 12.5
v 20.344889 14.528782 12.5
v 18.765316 16.518564 12.5
v -22.112551 11.66341 12.5
v -20.672228 14.059126 12.5
v -23.273184 9.13011 12.5
v 23.78134 7.710243 12.5
v 22.867756 10.102758 12.5
v 24.866461 2.580528 12.5
v 24.44688 5.22973 12.5
v 25.0 0.0 12.5
v -24.997446 -0.357297 12.5
v -24.712172 3.782663 12.5
v -24.978519 1.036152 12.5
v -24.937719 -1.763551 12.5
v -24.14237 6.49199 12.5
v -24.049257 -6.828855 12.5
v -24.623419 -4.322878 12.5
v 22.825407 -10.198078 12.5
v 23.816961 -7.599498 12.5
v 24.511963 -4.915659 12.5
v 24.881983 -2.426308 12.5
v -22.156803 -11.579123 12.5
v -23.223486 -9.255793 12.5
v 21.546835 -12.678086 12.5
v 19.994566 -15.007241 12.5
v 16.355207 -18.907862 12.5
v 18.185591 -17.154716 12.5
v -15.553779 -19.57243 12.5
v -19.354906 -15.823642 12.5
v -17.652018 -17.703283 12.5
v -13.266543 -21.189592 12.5
v -20.862219 -13.775623 12.5
v 12.193364 -21.824799 12.5
v 14.351339 -20.470444 12.5
v 9.902475 -22.955194 12.5
v 7.501484 -23.848013 12.5
v -5.582276 -24.368795 12.5
v -10.820717 -22.536905 12.5
v -8.248261 -23.60013 12.5
v -2.856563 -24.836266 12.5
v -0.105186 -24.999779 12.5
v 2.46727 -24.877954 12.5
v 5.014614 -24.491909 12.5
vn -0.647308 -0.47641 -0.595001
vn -0.53885 -0.488179 -0.686529
vn -0.617414 -0.363894 -0.69741
vn -0.583359 -0.387657 -0.713732
vn -0.688574 -0.234289 -0.686276
vn -0.47455 -0.532714 -0.700727
vn -0.405421 -0.573408 -0.711925
vn -0.477434 -0.504846 -0.719157
vn -0.56072 -0.395194 -0.727609
vn -0.550812 -0.4236 -0.719145
vn -0.540507 -0.434569 -0.720418
vn -0.633396 -0.290803 -0.717108
vn -0.619016 -0.310984 -0.721185
vn -0.634214 -0.279528 -0.720858
vn -0.693549 -0.158904 -0.702666
vn -0.673041 -0.198316 -0.712522
vn -0.343405 -0.623396 -0.70246
vn -0.403588 -0.572941 -0.713341
vn -0.484466 -0.451857 -0.749078
vn -0.469121 -0.489875 -0.734811
vn -0.56072 -0.327863 -0.760328
vn -0.54769 -0.365691 -0.752533
vn -0.621759 -0.243901 -0.744263
vn -0.632437 -0.207702 -0.746246
vn -0.275384 -0.666286 -0.692984
vn -0.314368 -0.617846 -0.720721
vn -0.68399 -0.131331 -0.717572
vn -0.697785 -0.085692 -0.711163
vn -0.404251 -0.507356 -0.761033
vn -0.386746 -0.545701 -0.743397
vn -0.469121 -0.421506 -0.776053
vn -0.484466 -0.382356 -0.786827
vn -0.56072 -0.257852 -0.786833
vn -0.54769 -0.296229 -0.782486
vn -0.219628 -0.655508 -0.722547
vn -0.203245 -0.70492 -0.679543
vn -0.621759 -0.175684 -0.76325
vn -0.632437 -0.139454 -0.761955
vn -0.301286 -0.598421 -0.742374
vn -0.320682 -0.560495 -0.76355
vn -0.696395 -0.029577 -0.717049
vn -0.690161 -0.065457 -0.720689
vn -0.404251 -0.436547 -0.803746
vn -0.386746 -0.476328 -0.789645
vn -0.484466 -0.309728 -0.818145
vn -0.469121 -0.349692 -0.810951
vn -0.54769 -0.224346 -0.806043
vn -0.56072 -0.185733 -0.806906
vn -0.213481 -0.646872 -0.732108
vn -0.234397 -0.610099 -0.75686
vn -0.621759 -0.106031 -0.775998
vn -0.632437 -0.070066 -0.771436
vn -0.320682 -0.489242 -0.811052
vn -0.301286 -0.528926 -0.793388
vn -0.694835 0.047875 -0.717574
vn -0.694471 0.009433 -0.719458
vn -0.691126 -9.8e-05 -0.722734
vn -0.404251 -0.362171 -0.839889
vn -0.386746 -0.403062 -0.829439
vn -0.469121 -0.275019 -0.83922
vn -0.484466 -0.234569 -0.842775
vn -0.146063 -0.655035 -0.741347
vn -0.118527 -0.691103 -0.712972
vn -0.128162 -0.683648 -0.71847
vn -0.56072 -0.112096 -0.820383
vn -0.54769 -0.150629 -0.823011
vn -0.213481 -0.578105 -0.787541
vn -0.234397 -0.539247 -0.80887
vn -0.621759 -0.035511 -0.782403
vn -0.632437 -0.000105 -0.774612
vn -0.320682 -0.413989 -0.851925
vn -0.301286 -0.455107 -0.837917
vn -0.688948 0.065365 -0.721857
vn -0.693616 0.086458 -0.715138
vn -0.386746 -0.326502 -0.862452
vn -0.404251 -0.284833 -0.869167
vn -0.054156 -0.691104 -0.720724
vn -0.042119 -0.708713 -0.704239
vn 0.033748 -0.712632 -0.700726
vn -0.469121 -0.198099 -0.860629
vn -0.484466 -0.157493 -0.860516
vn -0.146062 -0.5854 -0.797479
vn -0.124084 -0.622732 -0.772533
vn -0.56072 -0.037542 -0.827154
vn -0.54769 -0.07568 -0.833252
vn -0.234397 -0.463988 -0.854268
vn -0.213482 -0.504613 -0.836535
vn -0.632437 0.069856 -0.771455
vn -0.62176 0.035299 -0.782412
vn -0.301286 -0.377568 -0.875597
vn -0.320682 -0.335354 -0.885833
vn -0.694383 0.146036 -0.704632
vn -0.686742 0.130671 -0.715059
vn -0.404251 -0.205168 -0.89134
vn -0.386746 -0.247273 -0.888416
vn -0.056372 -0.626585 -0.777312
vn -0.033847 -0.661756 -0.748955
vn -0.469121 -0.119559 -0.875003
vn -0.484466 -0.079129 -0.871224
vn -0.146062 -0.510981 -0.847091
vn -0.124084 -0.550414 -0.82562
vn -0.54769 -0.000113 -0.836681
vn -0.56072 0.037318 -0.827164
vn -0.213482 -0.426997 -0.878692
vn -0.234397 -0.384936 -0.892683
vn -0.632437 0.139247 -0.761993
vn -0.621759 0.10582 -0.776027
vn -0.301286 -0.296943 -0.906119
vn -0.320682 -0.253976 -0.912502
vn 0.105213 -0.694251 -0.712001
vn 0.033959 -0.661753 -0.748952
vn 0.052825 -0.689057 -0.72278
vn -0.67567 0.243487 -0.695833
vn -0.677329 0.202343 -0.707307
vn -0.67467 0.197725 -0.711144
vn -0.386746 -0.166022 -0.907119
vn -0.404251 -0.123825 -0.906228
vn -0.033847 -0.591407 -0.805662
vn -0.056372 -0.553819 -0.830727
vn -0.469121 -0.040042 -0.882226
vn -0.484466 -0.000119 -0.87481
vn -0.146062 -0.432385 -0.88978
vn -0.124084 -0.473596 -0.871957
vn -0.54769 0.075454 -0.833272
vn -0.56072 0.111873 -0.820413
vn -0.234397 -0.302737 -0.923801
vn -0.213481 -0.34589 -0.913666
vn 0.184039 -0.7108 -0.678891
vn 0.131466 -0.678642 -0.722608
vn -0.621759 0.175477 -0.763297
vn -0.632437 0.2075 -0.746302
vn -0.320682 -0.170523 -0.931711
vn -0.301286 -0.213891 -0.929235
vn 0.056483 -0.626581 -0.777307
vn 0.033959 -0.591405 -0.805659
vn -0.386746 -0.083415 -0.918406
vn -0.404251 -0.041471 -0.913707
vn -0.056372 -0.476526 -0.877351
vn -0.033847 -0.516225 -0.855784
vn -0.484466 0.078893 -0.871245
vn -0.469121 0.039803 -0.882236
vn -0.146062 -0.350255 -0.925196
vn -0.124084 -0.392907 -0.911168
vn -0.54769 0.150405 -0.823052
vn -0.56072 0.185514 -0.806956
vn -0.213482 -0.261956 -0.941172
vn -0.234397 -0.218064 -0.947368
vn 0.146173 -0.655024 -0.741335
vn 0.124196 -0.622724 -0.772522
vn -0.621759 0.243699 -0.744329
vn -0.634394 0.290648 -0.716288
vn -0.634854 0.281248 -0.719625
vn -0.301286 -0.12909 -0.944755
vn -0.320682 -0.085676 -0.943304
vn 0.056483 -0.553815 -0.830722
vn 0.033959 -0.516223 -0.855781
vn -0.386746 -0.000125 -0.922186
vn -0.404251 0.041223 -0.913719
vn -0.056372 -0.395337 -0.916804
vn -0.033847 -0.436822 -0.898911
vn -0.469121 0.119322 -0.875036
vn -0.484466 0.15726 -0.860559
vn -0.146062 -0.265262 -0.953049
vn -0.124084 -0.309006 -0.942931
vn 0.24858 -0.668487 -0.700951
vn 0.312592 -0.633506 -0.707783
vn 0.213591 -0.646856 -0.732091
vn 0.22027 -0.656237 -0.721689
vn -0.56072 0.257638 -0.786903
vn -0.54769 0.224127 -0.806104
vn -0.213482 -0.175881 -0.960985
vn -0.234397 -0.131609 -0.963191
vn 0.124195 -0.550406 -0.825608
vn 0.146173 -0.585391 -0.797465
vn -0.615687 0.370156 -0.695639
vn -0.619528 0.310628 -0.720899
vn -0.320682 -0.000129 -0.947187
vn -0.301286 -0.043234 -0.952553
vn 0.033959 -0.436821 -0.898907
vn 0.056483 -0.476523 -0.877346
vn -0.404251 0.12358 -0.906261
vn -0.386746 0.083165 -0.918429
vn -0.056372 -0.310918 -0.948764
vn -0.033847 -0.353849 -0.93469
vn -0.469121 0.197865 -0.860683
vn -0.484466 0.234341 -0.842839
vn -0.124084 -0.22258 -0.966986
vn -0.146062 -0.1781 -0.973112
vn 0.213591 -0.578091 -0.787521
vn 0.234505 -0.610082 -0.75684
vn -0.54769 0.296016 -0.782566
vn -0.56072 0.327657 -0.760417
vn -0.213481 -0.088368 -0.972942
vn -0.234397 -0.044078 -0.971141
vn 0.146172 -0.510973 -0.847078
vn 0.124195 -0.473589 -0.871945
vn -0.301286 0.042975 -0.952565
vn -0.320682 0.08542 -0.943327
vn 0.033959 -0.353848 -0.934686
vn 0.056483 -0.395335 -0.916799
vn -0.386746 0.165776 -0.907164
vn -0.404251 0.204926 -0.891396
vn -0.056372 -0.223957 -0.972967
vn -0.033847 -0.267984 -0.962829
vn 0.301393 -0.5984 -0.742347
vn 0.379355 -0.60445 -0.700521
vn 0.316171 -0.620333 -0.71779
vn -0.469121 0.274792 -0.839294
vn -0.484466 0.309506 -0.818229
vn -0.124084 -0.134334 -0.983136
vn -0.146062 -0.089483 -0.98522
vn 0.234505 -0.539233 -0.808848
vn 0.213591 -0.504601 -0.836515
vn -0.555064 0.42491 -0.715091
vn -0.54769 0.365487 -0.752632
vn -0.562358 0.398815 -0.724362
vn -0.213481 -0.000133 -0.976947
vn -0.234397 0.043814 -0.971153
vn 0.146173 -0.432378 -0.889766
vn 0.124196 -0.392901 -0.911155
vn -0.301286 0.128833 -0.94479
vn -0.320682 0.17027 -0.931757
vn 0.056483 -0.310916 -0.948758
vn 0.033959 -0.267983 -0.962825
vn -0.404251 0.284598 -0.869244
vn -0.386746 0.247032 -0.888483
vn -0.033847 -0.179928 -0.983097
vn -0.056372 -0.135165 -0.989218
vn 0.320787 -0.560473 -0.763522
vn 0.301393 -0.528907 -0.79336
vn -0.484466 0.382142 -0.786931
vn -0.469121 0.349472 -0.811045
vn -0.146062 -0.000134 -0.989275
vn -0.124084 -0.04499 -0.991251
vn 0.213591 -0.426986 -0.87867
vn 0.234505 -0.463976 -0.854245
vn -0.524698 0.504484 -0.685702
vn -0.545647 0.432657 -0.717689
vn -0.234397 0.131348 -0.963227
vn -0.213481 0.088104 -0.972966
vn 0.124196 -0.309002 -0.942917
vn 0.146173 -0.350249 -0.925181
vn -0.320682 0.253729 -0.91257
vn -0.301286 0.213638 -0.929293
vn 0.056483 -0.223955 -0.972961
vn 0.033959 -0.179927 -0.983094
vn 0.38685 -0.545675 -0.743361
vn 0.43952 -0.563644 -0.699376
vn 0.398788 -0.564969 -0.722342
vn -0.386746 0.326268 -0.862541
vn -0.404251 0.361943 -0.839987
vn -0.033847 -0.090401 -0.99533
vn -0.056372 -0.045269 -0.997383
vn 0.320787 -0.489223 -0.811022
vn 0.301393 -0.455091 -0.837887
vn -0.469121 0.421296 -0.776167
vn -0.484466 0.451654 -0.7492
vn -0.146062 0.089216 -0.985244
vn -0.124084 0.044721 -0.991263
vn 0.234505 -0.384925 -0.892659
vn 0.213591 -0.345882 -0.913644
vn -0.213481 0.17562 -0.961032
vn -0.234397 0.217807 -0.947427
vn 0.146173 -0.265257 -0.953033
vn 0.124195 -0.222577 -0.966972
vn -0.320682 0.335113 -0.885925
vn -0.301286 0.296697 -0.9062
vn 0.056483 -0.135164 -0.989212
vn 0.033959 -0.090401 -0.995326
vn 0.404353 -0.507331 -0.760996
vn 0.38685 -0.476306 -0.789607
vn -0.404251 0.436329 -0.803864
vn -0.386746 0.402837 -0.829548
vn -0.033847 -0.000136 -0.999427
vn -0.056372 0.044998 -0.997395
vn 0.301393 -0.377555 -0.875565
vn 0.320787 -0.413974 -0.851893
vn -0.4603 0.548767 -0.697838
vn -0.476328 0.502646 -0.721428
vn -0.469121 0.489675 -0.734944
vn -0.146062 0.177836 -0.97316
vn -0.124084 0.134067 -0.983173
vn 0.213591 -0.26195 -0.941149
vn 0.234505 -0.302729 -0.923776
vn -0.234397 0.302487 -0.923883
vn -0.213482 0.261701 -0.941243
vn 0.124195 -0.134332 -0.983123
vn 0.146173 -0.178097 -0.973095
vn 0.469221 -0.489846 -0.734768
vn 0.479735 -0.508816 -0.714815
vn 0.489716 -0.511292 -0.706229
vn 0.551462 -0.464537 -0.692889
vn -0.320682 0.413758 -0.852037
vn -0.301286 0.377331 -0.875699
vn 0.056483 -0.045268 -0.997377
vn 0.033959 -0.000136 -0.999423
vn 0.404353 -0.436526 -0.803706
vn 0.38685 -0.403043 -0.829399
vn -0.386746 0.476114 -0.789774
vn -0.404251 0.507149 -0.761171
vn -0.033847 0.090131 -0.995355
vn -0.056372 0.134897 -0.989255
vn 0.320787 -0.335341 -0.8858
vn 0.301393 -0.296932 -0.906087
vn -0.124084 0.222318 -0.967046
vn -0.146062 0.265003 -0.953121
vn 0.213591 -0.175876 -0.960961
vn 0.234505 -0.218058 -0.947343
vn -0.234397 0.384694 -0.892787
vn -0.213481 0.345642 -0.91376
vn 0.146173 -0.089481 -0.985204
vn 0.124195 -0.04499 -0.991237
vn 0.543395 -0.433607 -0.718823
vn 0.484563 -0.45183 -0.749032
vn 0.469221 -0.421481 -0.776006
vn -0.301286 0.45488 -0.83804
vn -0.320682 0.489022 -0.811185
vn 0.056483 0.044998 -0.997389
vn 0.033959 0.090131 -0.995351
vn 0.38685 -0.326487 -0.862411
vn 0.404353 -0.362153 -0.839848
vn -0.335663 0.622951 -0.706584
vn -0.396448 0.584212 -0.708184
vn -0.386746 0.545499 -0.743545
vn -0.400533 0.567793 -0.719155
vn -0.056372 0.223693 -0.973028
vn -0.033847 0.179661 -0.983146
vn 0.320787 -0.253967 -0.912467
vn 0.301393 -0.213883 -0.929202
vn -0.124084 0.308751 -0.943014
vn -0.146062 0.350004 -0.925291
vn 0.234505 -0.131605 -0.963165
vn 0.213591 -0.088366 -0.972919
vn -0.234397 0.463756 -0.854394
vn -0.213482 0.426758 -0.878808
vn 0.146173 -0.000134 -0.989259
vn 0.124195 0.044721 -0.99125
vn 0.469221 -0.349671 -0.810902
vn 0.484563 -0.382332 -0.786779
vn -0.301286 0.528711 -0.793531
vn -0.320682 0.560287 -0.763702
vn 0.056483 0.134896 -0.989249
vn 0.033959 0.17966 -0.983142
vn 0.404353 -0.284819 -0.869124
vn 0.38685 -0.247261 -0.888374
vn -0.033847 0.267722 -0.962901
vn -0.056372 0.31066 -0.948848
vn 0.320787 -0.170517 -0.931676
vn 0.301393 -0.129085 -0.944722
vn -0.124084 0.39266 -0.911275
vn -0.146062 0.432144 -0.889897
vn 0.234505 -0.044076 -0.971115
vn 0.213591 -0.000133 -0.976923
vn 0.591153 -0.393975 -0.703791
vn 0.547784 -0.365663 -0.752478
vn 0.562721 -0.399617 -0.723638
vn -0.234397 0.539028 -0.809016
vn -0.213482 0.504386 -0.836672
vn 0.124195 0.134066 -0.983159
vn 0.146173 0.089214 -0.985228
vn 0.484563 -0.309709 -0.818095
vn 0.469221 -0.275003 -0.839169
vn -0.301286 0.59822 -0.742536
vn -0.274667 0.664506 -0.694975
vn -0.314898 0.618436 -0.719984
vn 0.056483 0.223691 -0.973022
vn 0.033959 0.267721 -0.962898
vn 0.38685 -0.166014 -0.907076
vn 0.404353 -0.205158 -0.891296
vn -0.033847 0.353596 -0.934786
vn -0.056372 0.395089 -0.916912
vn 0.320787 -0.085673 -0.943269
vn 0.301393 -0.043232 -0.952519
vn -0.146062 0.510751 -0.84723
vn -0.124084 0.473359 -0.872086
vn 0.234505 0.043813 -0.971127
vn 0.213591 0.088102 -0.972942
vn 0.560811 -0.327839 -0.760271
vn 0.547784 -0.296207 -0.782428
vn -0.234397 0.609893 -0.757026
vn -0.213482 0.577891 -0.787697
vn 0.124195 0.222314 -0.967032
vn 0.146173 0.177833 -0.973144
vn 0.484563 -0.234555 -0.842723
vn 0.469221 -0.198087 -0.860577
vn 0.056483 0.310658 -0.948842
vn 0.033959 0.353594 -0.934782
vn 0.404353 -0.123819 -0.906183
vn 0.38685 -0.083411 -0.918362
vn -0.033847 0.436578 -0.899029
vn -0.056372 0.476288 -0.877481
vn 0.320787 -0.000128 -0.947151
vn 0.301393 0.042974 -0.952531
vn 0.621848 -0.310097 -0.719128
vn 0.656573 -0.338497 -0.674042
vn 0.66552 -0.275267 -0.693766
vn 0.627495 -0.324897 -0.707596
vn -0.124084 0.55019 -0.825769
vn -0.146062 0.585184 -0.797637
vn 0.234505 0.131344 -0.963201
vn 0.213591 0.175616 -0.961009
vn 0.560811 -0.257832 -0.786774
vn 0.547784 -0.224329 -0.805983
vn -0.130438 0.691064 -0.710927
vn -0.207606 0.697226 -0.686131
vn -0.213482 0.646672 -0.732284
vn -0.220109 0.655984 -0.721968
vn 0.146173 0.264999 -0.953105
vn 0.124196 0.308746 -0.943001
vn 0.469221 -0.119552 -0.874951
vn 0.484563 -0.157483 -0.860464
vn 0.033959 0.436577 -0.899026
vn 0.056483 0.395086 -0.916906
vn 0.38685 -0.000125 -0.922143
vn 0.404353 -0.041469 -0.913663
vn -0.033847 0.515992 -0.855924
vn -0.056372 0.553593 -0.830877
vn 0.320787 0.085417 -0.943292
vn 0.301393 0.128829 -0.944757
vn 0.678119 -0.237231 -0.695612
vn 0.621848 -0.243879 -0.744196
vn 0.632523 -0.274228 -0.724371
vn 0.652001 -0.268449 -0.709105
vn -0.058072 0.694664 -0.716986
vn -0.126652 0.685799 -0.716686
vn -0.124084 0.622523 -0.772702
vn -0.146062 0.654833 -0.741525
vn 0.234505 0.217801 -0.947402
vn 0.213591 0.261694 -0.94122
vn 0.560811 -0.185719 -0.806845
vn 0.547784 -0.150617 -0.82295
vn 0.124195 0.392654 -0.911262
vn 0.146173 0.349998 -0.925276
vn 0.469221 -0.04004 -0.882173
vn 0.484563 -0.079124 -0.871171
vn 0.056483 0.476285 -0.877475
vn 0.033959 0.51599 -0.855921
vn 0.404353 0.041221 -0.913674
vn 0.38685 0.083161 -0.918385
vn -0.033847 0.591189 -0.805823
vn -0.056372 0.626374 -0.777482
vn 0.320787 0.170264 -0.931722
vn 0.301393 0.213631 -0.92926
vn 0.632523 -0.207684 -0.746178
vn 0.674893 -0.197863 -0.710894
vn 0.677123 -0.195384 -0.709457
vn 0.688177 -0.157829 -0.708169
vn 0.621848 -0.175668 -0.763181
vn 0.234505 0.302479 -0.923858
vn 0.213591 0.345634 -0.913737
vn 0.547784 -0.075675 -0.83319
vn 0.560811 -0.112087 -0.820321
vn 0.124195 0.473353 -0.872074
vn 0.146173 0.432137 -0.889883
vn 0.484563 -0.000119 -0.874757
vn 0.469221 0.0398 -0.882184
vn 0.033959 0.591187 -0.805819
vn 0.056483 0.55359 -0.830872
vn 0.404353 0.123574 -0.906217
vn 0.38685 0.165768 -0.907121
vn 0.016987 0.72126 -0.692456
vn -0.056133 0.693698 -0.718075
vn -0.033847 0.661553 -0.749134
vn 0.320787 0.253719 -0.912536
vn 0.301393 0.296687 -0.906167
vn 0.632523 -0.139441 -0.761886
vn 0.683533 -0.131408 -0.717993
vn 0.621848 -0.106022 -0.775928
vn 0.69697 -0.103598 -0.709577
vn 0.234505 0.384683 -0.892763
vn 0.213591 0.426748 -0.878786
vn 0.547784 -0.000113 -0.83662
vn 0.560811 -0.037539 -0.827092
vn 0.146172 0.510743 -0.847216
vn 0.124195 0.550182 -0.825757
vn 0.484563 0.078888 -0.871192
vn 0.469221 0.119315 -0.874983
vn 0.094047 0.696986 -0.710891
vn 0.052065 0.687782 -0.724048
vn 0.056483 0.62637 -0.777477
vn 0.033959 0.66155 -0.749132
vn 0.38685 0.24702 -0.888442
vn 0.404353 0.204916 -0.891352
vn 0.320787 0.335101 -0.885891
vn 0.301393 0.377317 -0.875668
vn 0.699579 -0.034028 -0.713744
vn 0.688979 -0.065559 -0.72181
vn 0.621848 -0.035508 -0.782332
vn 0.632523 -0.07006 -0.771366
vn 0.234505 0.463744 -0.854371
vn 0.213591 0.504374 -0.836652
vn 0.547784 0.075449 -0.833211
vn 0.560811 0.037315 -0.827102
vn 0.146172 0.585174 -0.797624
vn 0.124195 0.622514 -0.772691
vn 0.484563 0.15725 -0.860506
vn 0.469221 0.197853 -0.860631
vn 0.38685 0.326252 -0.8625
vn 0.404353 0.284584 -0.869201
vn 0.320787 0.413743 -0.852005
vn 0.301393 0.454863 -0.83801
vn 0.690758 -9.8e-05 -0.723086
vn 0.700114 0.03623 -0.713111
vn 0.621848 0.035296 -0.782342
vn 0.632523 -0.000105 -0.774541
vn 0.213591 0.577877 -0.787678
vn 0.234505 0.539013 -0.808994
vn 0.547784 0.150394 -0.822991
vn 0.560811 0.111865 -0.820352
vn 0.178408 0.713977 -0.677058
vn 0.131584 0.67826 -0.722944
vn 0.146173 0.654823 -0.741512
vn 0.484563 0.234326 -0.842787
vn 0.469221 0.274775 -0.839244
vn 0.404353 0.361925 -0.839946
vn 0.38685 0.402818 -0.829509
vn 0.320787 0.489003 -0.811154
vn 0.301393 0.528692 -0.793503
vn 0.6967 0.110343 -0.708825
vn 0.632523 0.06985 -0.771385
vn 0.621848 0.105811 -0.775957
vn 0.689147 0.065348 -0.721669
vn 0.249098 0.669966 -0.699354
vn 0.234505 0.609877 -0.757005
vn 0.213591 0.646657 -0.732266
vn 0.221014 0.65708 -0.720693
vn 0.560811 0.1855 -0.806896
vn 0.547784 0.22411 -0.806044
vn 0.484563 0.309487 -0.818179
vn 0.469221 0.349451 -0.810997
vn 0.38685 0.476091 -0.789737
vn 0.404353 0.436308 -0.803825
vn 0.389864 0.596041 -0.701956
vn 0.315219 0.624522 -0.71457
vn 0.320519 0.626554 -0.710421
vn 0.320787 0.560267 -0.763673
vn 0.301393 0.598199 -0.74251
vn 0.688199 0.184649 -0.701632
vn 0.632523 0.139235 -0.761924
vn 0.621848 0.175461 -0.763229
vn 0.684606 0.131033 -0.717039
vn 0.560811 0.257619 -0.786844
vn 0.547785 0.295995 -0.782508
vn 0.484563 0.382119 -0.786883
vn 0.469221 0.42127 -0.776121
vn 0.458157 0.553521 -0.69549
vn 0.38685 0.545473 -0.743509
vn 0.404353 0.507124 -0.761133
vn 0.399541 0.565993 -0.721123
vn 0.676899 0.258474 -0.689202
vn 0.676149 0.197362 -0.709839
vn 0.632523 0.207481 -0.746235
vn 0.621848 0.243678 -0.744262
vn 0.560811 0.327632 -0.76036
vn 0.547784 0.365459 -0.752577
vn 0.517917 0.504735 -0.690655
vn 0.476454 0.502666 -0.721331
vn 0.484563 0.451627 -0.749154
vn 0.469221 0.489646 -0.7349
vn 0.685475 0.345708 -0.640788
vn 0.625211 0.318657 -0.712439
vn 0.632523 0.274032 -0.724446
vn 0.621848 0.309902 -0.719212
vn 0.650805 0.26862 -0.710138
vn 0.630792 0.403585 -0.662737
vn 0.548089 0.435096 -0.714345
vn 0.549902 0.436271 -0.712232
vn 0.602387 0.38078 -0.701524
vn 0.560811 0.394967 -0.727662
vn 0.547784 0.431937 -0.716493
vn 0.0 0.0 1.0
vn 0.0 0.0 1.0
vn 0.0 0.0 1.0
vn 0.0 0.0 1.0
vn 0.0 0.0 1.0
vn 0.0 0.0 1.0
vn 0.0 0.0 1.0
vn 0.0 0.0 1.0
vn 0.0 0.0 1.0
vn 0.0 0.0 1.0
vn 0.0 0.0 1.0
vn 0.0 0.0 1.0
vn 0.0 0.0 1.0
vn 0.0 0.0 1.0
vn 0.0 0.0 1.0
vn 0.0 0.0 1.0
vn 0.0 0.0 1.0
vn 0.0 0.0 1.0
vn 0.0 0.0 1.0
vn 0.0 0.0 1.0
vn 0.0 0.0 1.0
vn 0.0 0.0 1.0
vn 0.0 -0.0 1.0
vn 0.0 0.0 1.0
vn 0.0 0.0 1.0
vn 0.0 0.0 1.0
vn 0.0 -0.0 1.0
vn 0.0 0.0 1.0
vn 0.0 0.0 1.0
vn 0.0 0.0 1.0
vn 0.0 0.0 1.0
vn 0.0 0.0 1.0
vn 0.0 -0.0 1.0
vn 0.0 0.0 1.0
vn 0.0 0.0 1.0
vn 0.0 0.0 1.0
vn 0.0 0.0 1.0
vn 0.0 0.0 1.0
vn 0.0 0.0 1.0
vn 0.0 0.0 1.0
vn 0.0 0.0 1.0
vn 0.0 0.0 1.0
vn 0.0 0.0 1.0
vn 0.0 -0.0 1.0
vn 0.0 0.0 1.0
vn 0.0 0.0 1.0
vn 0.0 0.0 1.0
vn 0.0 0.0 1.0
vn 0.0 0.0 1.0
vn 0.0 -0.0 1.0
vn 0.0 -0.0 1.0
vn 0.0 0.0 1.0
vn 0.0 0.0 1.0
vn 0.0 0.0 1.0
vn 0.0 0.0 1.0
vn 0.0 0.0 1.0
vn 0.0 -0.0 1.0
vn 0.0 0.0 1.0
vn 0.998664 0.05168 0.0
vn 0.998664 0.05168 0.0
vn 0.987689 0.15643 -0.0
vn 0.987689 0.15643 0.0
vn 0.965839 0.259142 0.0
vn 0.965839 0.259142 0.0
vn 0.934208 0.356728 -0.0
vn 0.934208 0.356728 0.0
vn 0.892874 0.450306 0.0
vn 0.892874 0.450306 0.0
vn 0.842345 0.538939 0.0
vn 0.842345 0.538939 0.0
vn 0.783216 0.62175 0.0
vn 0.783216 0.62175 0.0
vn 0.716162 0.697934 0.0
vn 0.716162 0.697934 0.0
vn 0.637627 0.770346 -0.0
vn 0.637627 0.770346 0.0
vn 0.547392 0.836876 0.0
vn 0.547392 0.836876 -0.0
vn 0.450593 0.892729 0.0
vn 0.348498 0.93731 0.0
vn 0.450593 0.892729 -0.0
vn 0.348498 0.93731 0.0
vn 0.242425 0.97017 0.0
vn 0.242425 0.97017 -0.0
vn 0.133722 0.991019 0.0
vn 0.133722 0.991019 -0.0
vn 0.023546 0.999723 0.0
vn -0.083307 0.996524 0.0
vn 0.023546 0.999723 -0.0
vn -0.083307 0.996524 0.0
vn -0.185474 0.982649 0.0
vn -0.185474 0.982649 -0.0
vn -0.285378 0.958415 0.0
vn -0.285378 0.958415 -0.0
vn -0.381994 0.924165 0.0
vn -0.381994 0.924165 0.0
vn -0.47435 0.880337 0.0
vn -0.47435 0.880337 0.0
vn -0.561519 0.827464 0.0
vn -0.561519 0.827464 0.0
vn -0.642648 0.766162 -0.0
vn -0.642648 0.766162 0.0
vn -0.720856 0.693085 -0.0
vn -0.720856 0.693085 0.0
vn -0.794048 0.607855 -0.0
vn -0.794048 0.607855 0.0
vn -0.857036 0.515257 0.0
vn -0.857036 0.515257 0.0
vn -0.909128 0.416517 0.0
vn -0.909128 0.416517 0.0
vn -0.940778 0.339023 0.0
vn -0.94954 0.312847 0.022372
vn -0.958159 0.286237 0.0
vn -0.978592 0.205809 -0.0
vn -0.978592 0.205809 0.0
vn -0.992321 0.123692 0.0
vn -0.995088 0.0965 0.022079
vn -0.997635 0.068739 0.0
vn -0.999908 0.013581 0.0
vn -0.999908 0.013581 0.0
vn -0.999099 -0.042434 0.0
vn -0.999099 -0.042434 -0.0
vn -0.992544 -0.12189 -0.0
vn -0.992544 -0.12189 -0.0
vn -0.974743 -0.22333 -0.0
vn -0.974743 -0.22333 -0.0
vn -0.9467 -0.322117 -0.0
vn -0.9467 -0.322117 -0.0
vn -0.908794 -0.417244 0.0
vn -0.908794 -0.417244 -0.0
vn -0.861501 -0.507756 0.0
vn -0.861501 -0.507756 -0.0
vn -0.741092 -0.671403 -0.0
vn -0.805385 -0.592752 0.0
vn -0.805385 -0.592752 -0.0
vn -0.741092 -0.671403 -0.0
vn -0.665168 -0.746694 -0.0
vn -0.665168 -0.746694 0.0
vn -0.577313 -0.816523 -0.0
vn -0.577313 -0.816523 -0.0
vn -0.482498 -0.875897 -0.0
vn -0.482498 -0.875897 0.0
vn -0.381972 -0.924174 -0.0
vn -0.277038 -0.960859 -0.0
vn -0.381972 -0.924174 -0.0
vn -0.277038 -0.960859 -0.0
vn -0.169036 -0.98561 -0.0
vn -0.169036 -0.98561 -0.0
vn -0.059325 -0.998239 -0.0
vn -0.059325 -0.998239 0.0
vn 0.047304 -0.998881 0.0
vn 0.047304 -0.998881 0.0
vn 0.149837 -0.988711 0.0
vn 0.149837 -0.988711 -0.0
vn 0.250653 -0.968077 0.0
vn 0.348537 -0.937295 0.0
vn 0.250653 -0.968077 0.0
vn 0.348537 -0.937295 0.0
vn 0.442495 -0.896771 0.0
vn 0.531584 -0.847005 0.0
vn 0.442495 -0.896771 -0.0
vn 0.614925 -0.788585 0.0
vn 0.531584 -0.847005 0.0
vn 0.691705 -0.72218 0.0
vn 0.614925 -0.788585 0.0
vn 0.691705 -0.72218 0.0
vn 0.76481 -0.644256 0.0
vn 0.76481 -0.644256 0.0
vn 0.832133 -0.554576 0.0
vn 0.88883 -0.458238 0.0
vn 0.832133 -0.554576 0.0
vn 0.924076 -0.382208 0.0
vn 0.88883 -0.458238 0.0
vn 0.943906 -0.330214 0.0
vn 0.960801 -0.277239 0.0
vn 0.934059 -0.356414 0.022432
vn 0.974695 -0.22354 0.0
vn 0.967827 -0.250627 0.022287
vn 0.989133 -0.147026 0.0
vn 0.998819 -0.048583 0.0
vn 0.989133 -0.147026 -0.0
vn 0.998819 -0.048583 0.0
f 1//1 2//1 3//1 
f 4//2 5//2 2//2 
f 6//3 3//3 7//3 
f 6//4 1//4 3//4 
f 8//5 9//5 10//5 
f 11//6 12//6 5//6 
f 11//7 13//7 12//7 
f 11//8 5//8 4//8 
f 14//9 1//9 6//9 
f 14//10 2//10 1//10 
f 14//11 4//11 2//11 
f 15//12 7//12 9//12 
f 15//13 6//13 7//13 
f 15//14 9//14 8//14 
f 16//15 10//15 17//15 
f 16//16 8//16 10//16 
f 18//17 19//17 13//17 
f 18//18 13//18 11//18 
f 20//19 4//19 14//19 
f 20//20 11//20 4//20 
f 21//21 6//21 15//21 
f 21//22 14//22 6//22 
f 22//23 15//23 8//23 
f 22//24 8//24 16//24 
f 23//25 24//25 19//25 
f 23//26 19//26 18//26 
f 25//27 16//27 17//27 
f 25//28 17//28 26//28 
f 27//29 11//29 20//29 
f 27//30 18//30 11//30 
f 28//31 20//31 14//31 
f 28//32 14//32 21//32 
f 29//33 15//33 22//33 
f 29//34 21//34 15//34 
f 30//35 24//35 23//35 
f 30//36 31//36 24//36 
f 32//37 22//37 16//37 
f 32//38 16//38 25//38 
f 33//39 23//39 18//39 
f 33//40 18//40 27//40 
f 34//41 26//41 35//41 
f 34//42 25//42 26//42 
f 36//43 20//43 28//43 
f 36//44 27//44 20//44 
f 37//45 21//45 29//45 
f 37//46 28//46 21//46 
f 38//47 29//47 22//47 
f 38//48 22//48 32//48 
f 39//49 30//49 23//49 
f 39//50 23//50 33//50 
f 40//51 32//51 25//51 
f 40//52 25//52 34//52 
f 41//53 27//53 36//53 
f 41//54 33//54 27//54 
f 42//55 43//55 44//55 
f 42//56 35//56 43//56 
f 42//57 34//57 35//57 
f 45//58 28//58 37//58 
f 45//59 36//59 28//59 
f 46//60 37//60 29//60 
f 46//61 29//61 38//61 
f 47//62 30//62 39//62 
f 47//63 48//63 31//63 
f 47//64 31//64 30//64 
f 49//65 32//65 40//65 
f 49//66 38//66 32//66 
f 50//67 39//67 33//67 
f 50//68 33//68 41//68 
f 51//69 40//69 34//69 
f 51//70 34//70 42//70 
f 52//71 36//71 45//71 
f 52//72 41//72 36//72 
f 53//73 42//73 44//73 
f 53//74 44//74 54//74 
f 55//75 45//75 37//75 
f 55//76 37//76 46//76 
f 56//77 48//77 47//77 
f 56//78 57//78 48//78 
f 56//79 58//79 57//79 
f 59//80 46//80 38//80 
f 59//81 38//81 49//81 
f 60//82 39//82 50//82 
f 60//83 47//83 39//83 
f 61//84 40//84 51//84 
f 61//85 49//85 40//85 
f 62//86 41//86 52//86 
f 62//87 50//87 41//87 
f 63//88 42//88 53//88 
f 63//89 51//89 42//89 
f 64//90 52//90 45//90 
f 64//91 45//91 55//91 
f 65//92 54//92 66//92 
f 65//93 53//93 54//93 
f 67//94 46//94 59//94 
f 67//95 55//95 46//95 
f 68//96 47//96 60//96 
f 68//97 56//97 47//97 
f 69//98 59//98 49//98 
f 69//99 49//99 61//99 
f 70//100 50//100 62//100 
f 70//101 60//101 50//101 
f 71//102 61//102 51//102 
f 71//103 51//103 63//103 
f 72//104 62//104 52//104 
f 72//105 52//105 64//105 
f 73//106 53//106 65//106 
f 73//107 63//107 53//107 
f 74//108 64//108 55//108 
f 74//109 55//109 67//109 
f 75//110 76//110 58//110 
f 75//111 56//111 68//111 
f 75//112 58//112 56//112 
f 77//113 78//113 79//113 
f 77//114 66//114 78//114 
f 77//115 65//115 66//115 
f 80//116 67//116 59//116 
f 80//117 59//117 69//117 
f 81//118 68//118 60//118 
f 81//119 60//119 70//119 
f 82//120 69//120 61//120 
f 82//121 61//121 71//121 
f 83//122 62//122 72//122 
f 83//123 70//123 62//123 
f 84//124 71//124 63//124 
f 84//125 63//125 73//125 
f 85//126 64//126 74//126 
f 85//127 72//127 64//127 
f 86//128 87//128 76//128 
f 86//129 76//129 75//129 
f 88//130 73//130 65//130 
f 88//131 65//131 77//131 
f 89//132 67//132 80//132 
f 89//133 74//133 67//133 
f 90//134 75//134 68//134 
f 90//135 68//135 81//135 
f 91//136 80//136 69//136 
f 91//137 69//137 82//137 
f 92//138 70//138 83//138 
f 92//139 81//139 70//139 
f 93//140 71//140 84//140 
f 93//141 82//141 71//141 
f 94//142 72//142 85//142 
f 94//143 83//143 72//143 
f 95//144 84//144 73//144 
f 95//145 73//145 88//145 
f 96//146 85//146 74//146 
f 96//147 74//147 89//147 
f 97//148 86//148 75//148 
f 97//149 75//149 90//149 
f 98//150 88//150 77//150 
f 98//151 79//151 99//151 
f 98//152 77//152 79//152 
f 100//153 89//153 80//153 
f 100//154 80//154 91//154 
f 101//155 90//155 81//155 
f 101//156 81//156 92//156 
f 102//157 91//157 82//157 
f 102//158 82//158 93//158 
f 103//159 83//159 94//159 
f 103//160 92//160 83//160 
f 104//161 93//161 84//161 
f 104//162 84//162 95//162 
f 105//163 85//163 96//163 
f 105//164 94//164 85//164 
f 106//165 107//165 87//165 
f 106//166 108//166 107//166 
f 106//167 86//167 97//167 
f 106//168 87//168 86//168 
f 109//169 88//169 98//169 
f 109//170 95//170 88//170 
f 110//171 96//171 89//171 
f 110//172 89//172 100//172 
f 111//173 90//173 101//173 
f 111//174 97//174 90//174 
f 112//175 99//175 113//175 
f 112//176 98//176 99//176 
f 114//177 91//177 102//177 
f 114//178 100//178 91//178 
f 115//179 92//179 103//179 
f 115//180 101//180 92//180 
f 116//181 93//181 104//181 
f 116//182 102//182 93//182 
f 117//183 94//183 105//183 
f 117//184 103//184 94//184 
f 118//185 104//185 95//185 
f 118//186 95//186 109//186 
f 119//187 105//187 96//187 
f 119//188 96//188 110//188 
f 120//189 97//189 111//189 
f 120//190 106//190 97//190 
f 121//191 109//191 98//191 
f 121//192 98//192 112//192 
f 122//193 110//193 100//193 
f 122//194 100//194 114//194 
f 123//195 111//195 101//195 
f 123//196 101//196 115//196 
f 124//197 114//197 102//197 
f 124//198 102//198 116//198 
f 125//199 103//199 117//199 
f 125//200 115//200 103//200 
f 126//201 116//201 104//201 
f 126//202 104//202 118//202 
f 127//203 105//203 119//203 
f 127//204 117//204 105//204 
f 128//205 106//205 120//205 
f 128//206 129//206 108//206 
f 128//207 108//207 106//207 
f 130//208 118//208 109//208 
f 130//209 109//209 121//209 
f 131//210 119//210 110//210 
f 131//211 110//211 122//211 
f 132//212 120//212 111//212 
f 132//213 111//213 123//213 
f 133//214 113//214 134//214 
f 133//215 121//215 112//215 
f 133//216 112//216 113//216 
f 135//217 122//217 114//217 
f 135//218 114//218 124//218 
f 136//219 123//219 115//219 
f 136//220 115//220 125//220 
f 137//221 124//221 116//221 
f 137//222 116//222 126//222 
f 138//223 125//223 117//223 
f 138//224 117//224 127//224 
f 139//225 118//225 130//225 
f 139//226 126//226 118//226 
f 140//227 127//227 119//227 
f 140//228 119//228 131//228 
f 141//229 128//229 120//229 
f 141//230 120//230 132//230 
f 142//231 121//231 133//231 
f 142//232 130//232 121//232 
f 143//233 122//233 135//233 
f 143//234 131//234 122//234 
f 144//235 123//235 136//235 
f 144//236 132//236 123//236 
f 145//237 134//237 146//237 
f 145//238 133//238 134//238 
f 147//239 124//239 137//239 
f 147//240 135//240 124//240 
f 148//241 125//241 138//241 
f 148//242 136//242 125//242 
f 149//243 126//243 139//243 
f 149//244 137//244 126//244 
f 150//245 138//245 127//245 
f 150//246 127//246 140//246 
f 151//247 128//247 141//247 
f 151//248 152//248 129//248 
f 151//249 129//249 128//249 
f 153//250 139//250 130//250 
f 153//251 130//251 142//251 
f 154//252 140//252 131//252 
f 154//253 131//253 143//253 
f 155//254 141//254 132//254 
f 155//255 132//255 144//255 
f 156//256 142//256 133//256 
f 156//257 133//257 145//257 
f 157//258 135//258 147//258 
f 157//259 143//259 135//259 
f 158//260 144//260 136//260 
f 158//261 136//261 148//261 
f 159//262 147//262 137//262 
f 159//263 137//263 149//263 
f 160//264 148//264 138//264 
f 160//265 138//265 150//265 
f 161//266 139//266 153//266 
f 161//267 149//267 139//267 
f 162//268 150//268 140//268 
f 162//269 140//269 154//269 
f 163//270 151//270 141//270 
f 163//271 141//271 155//271 
f 164//272 142//272 156//272 
f 164//273 153//273 142//273 
f 165//274 154//274 143//274 
f 165//275 143//275 157//275 
f 166//276 144//276 158//276 
f 166//277 155//277 144//277 
f 167//278 146//278 168//278 
f 167//279 145//279 146//279 
f 167//280 156//280 145//280 
f 169//281 147//281 159//281 
f 169//282 157//282 147//282 
f 170//283 148//283 160//283 
f 170//284 158//284 148//284 
f 171//285 149//285 161//285 
f 171//286 159//286 149//286 
f 172//287 150//287 162//287 
f 172//288 160//288 150//288 
f 173//289 151//289 163//289 
f 173//290 152//290 151//290 
f 173//291 174//291 152//291 
f 173//292 175//292 174//292 
f 176//293 153//293 164//293 
f 176//294 161//294 153//294 
f 177//295 162//295 154//295 
f 177//296 154//296 165//296 
f 178//297 163//297 155//297 
f 178//298 155//298 166//298 
f 179//299 164//299 156//299 
f 179//300 156//300 167//300 
f 180//301 165//301 157//301 
f 180//302 157//302 169//302 
f 181//303 166//303 158//303 
f 181//304 158//304 170//304 
f 182//305 169//305 159//305 
f 182//306 159//306 171//306 
f 183//307 160//307 172//307 
f 183//308 170//308 160//308 
f 184//309 161//309 176//309 
f 184//310 171//310 161//310 
f 185//311 172//311 162//311 
f 185//312 162//312 177//312 
f 186//313 175//313 173//313 
f 186//314 173//314 163//314 
f 186//315 163//315 178//315 
f 187//316 176//316 164//316 
f 187//317 164//317 179//317 
f 188//318 177//318 165//318 
f 188//319 165//319 180//319 
f 189//320 166//320 181//320 
f 189//321 178//321 166//321 
f 190//322 191//322 192//322 
f 190//323 168//323 191//323 
f 190//324 179//324 167//324 
f 190//325 167//325 168//325 
f 193//326 169//326 182//326 
f 193//327 180//327 169//327 
f 194//328 181//328 170//328 
f 194//329 170//329 183//329 
f 195//330 182//330 171//330 
f 195//331 171//331 184//331 
f 196//332 183//332 172//332 
f 196//333 172//333 185//333 
f 197//334 176//334 187//334 
f 197//335 184//335 176//335 
f 198//336 185//336 177//336 
f 198//337 177//337 188//337 
f 199//338 178//338 189//338 
f 199//339 186//339 178//339 
f 200//340 187//340 179//340 
f 200//341 179//341 190//341 
f 201//342 188//342 180//342 
f 201//343 180//343 193//343 
f 202//344 189//344 181//344 
f 202//345 181//345 194//345 
f 203//346 193//346 182//346 
f 203//347 182//347 195//347 
f 204//348 194//348 183//348 
f 204//349 183//349 196//349 
f 205//350 195//350 184//350 
f 205//351 184//351 197//351 
f 206//352 196//352 185//352 
f 206//353 185//353 198//353 
f 207//354 208//354 175//354 
f 207//355 186//355 199//355 
f 207//356 175//356 186//356 
f 209//357 187//357 200//357 
f 209//358 197//358 187//358 
f 210//359 188//359 201//359 
f 210//360 198//360 188//360 
f 211//361 199//361 189//361 
f 211//362 189//362 202//362 
f 212//363 200//363 190//363 
f 212//364 192//364 213//364 
f 212//365 190//365 192//365 
f 214//366 201//366 193//366 
f 214//367 193//367 203//367 
f 215//368 194//368 204//368 
f 215//369 202//369 194//369 
f 216//370 203//370 195//370 
f 216//371 195//371 205//371 
f 217//372 204//372 196//372 
f 217//373 196//373 206//373 
f 218//374 197//374 209//374 
f 218//375 205//375 197//375 
f 219//376 206//376 198//376 
f 219//377 198//377 210//377 
f 220//378 207//378 199//378 
f 220//379 199//379 211//379 
f 221//380 200//380 212//380 
f 221//381 209//381 200//381 
f 222//382 201//382 214//382 
f 222//383 210//383 201//383 
f 223//384 211//384 202//384 
f 223//385 202//385 215//385 
f 224//386 214//386 203//386 
f 224//387 203//387 216//387 
f 225//388 215//388 204//388 
f 225//389 204//389 217//389 
f 226//390 216//390 205//390 
f 226//391 205//391 218//391 
f 227//392 217//392 206//392 
f 227//393 206//393 219//393 
f 228//394 207//394 220//394 
f 228//395 229//395 208//395 
f 228//396 230//396 229//396 
f 228//397 208//397 207//397 
f 231//398 218//398 209//398 
f 231//399 209//399 221//399 
f 232//400 219//400 210//400 
f 232//401 210//401 222//401 
f 233//402 220//402 211//402 
f 233//403 211//403 223//403 
f 234//404 235//404 236//404 
f 234//405 213//405 235//405 
f 234//406 221//406 212//406 
f 234//407 212//407 213//407 
f 237//408 222//408 214//408 
f 237//409 214//409 224//409 
f 238//410 215//410 225//410 
f 238//411 223//411 215//411 
f 239//412 216//412 226//412 
f 239//413 224//413 216//413 
f 240//414 217//414 227//414 
f 240//415 225//415 217//415 
f 241//416 226//416 218//416 
f 241//417 218//417 231//417 
f 242//418 227//418 219//418 
f 242//419 219//419 232//419 
f 243//420 244//420 230//420 
f 243//421 220//421 233//421 
f 243//422 228//422 220//422 
f 243//423 230//423 228//423 
f 245//424 236//424 246//424 
f 245//425 234//425 236//425 
f 245//426 231//426 221//426 
f 245//427 221//427 234//427 
f 247//428 232//428 222//428 
f 247//429 222//429 237//429 
f 248//430 233//430 223//430 
f 248//431 223//431 238//431 
f 249//432 224//432 239//432 
f 249//433 237//433 224//433 
f 250//434 225//434 240//434 
f 250//435 238//435 225//435 
f 251//436 239//436 226//436 
f 251//437 226//437 241//437 
f 252//438 240//438 227//438 
f 252//439 227//439 242//439 
f 253//440 241//440 231//440 
f 253//441 231//441 245//441 
f 254//442 242//442 232//442 
f 254//443 232//443 247//443 
f 255//444 243//444 233//444 
f 255//445 244//445 243//445 
f 255//446 256//446 244//446 
f 255//447 257//447 256//447 
f 255//448 233//448 248//448 
f 258//449 247//449 237//449 
f 258//450 237//450 249//450 
f 259//451 238//451 250//451 
f 259//452 248//452 238//452 
f 260//453 239//453 251//453 
f 260//454 249//454 239//454 
f 261//455 250//455 240//455 
f 261//456 240//456 252//456 
f 262//457 241//457 253//457 
f 262//458 251//458 241//458 
f 263//459 252//459 242//459 
f 263//460 242//460 254//460 
f 264//461 246//461 265//461 
f 264//462 245//462 246//462 
f 264//463 253//463 245//463 
f 266//464 254//464 247//464 
f 266//465 247//465 258//465 
f 267//466 255//466 248//466 
f 267//467 257//467 255//467 
f 267//468 248//468 259//468 
f 267//469 268//469 257//469 
f 269//470 258//470 249//470 
f 269//471 249//471 260//471 
f 270//472 250//472 261//472 
f 270//473 259//473 250//473 
f 271//474 260//474 251//474 
f 271//475 251//475 262//475 
f 272//476 261//476 252//476 
f 272//477 252//477 263//477 
f 273//478 265//478 274//478 
f 273//479 264//479 265//479 
f 273//480 262//480 253//480 
f 273//481 253//481 264//481 
f 275//482 254//482 266//482 
f 275//483 263//483 254//483 
f 276//484 266//484 258//484 
f 276//485 258//485 269//485 
f 277//486 278//486 268//486 
f 277//487 268//487 267//487 
f 277//488 259//488 270//488 
f 277//489 267//489 259//489 
f 279//490 269//490 260//490 
f 279//491 260//491 271//491 
f 280//492 261//492 272//492 
f 280//493 270//493 261//493 
f 281//494 271//494 262//494 
f 281//495 262//495 273//495 
f 282//496 272//496 263//496 
f 282//497 263//497 275//497 
f 283//498 266//498 276//498 
f 283//499 275//499 266//499 
f 284//500 276//500 269//500 
f 284//501 269//501 279//501 
f 285//502 278//502 277//502 
f 285//503 286//503 278//503 
f 285//504 270//504 280//504 
f 285//505 277//505 270//505 
f 287//506 271//506 281//506 
f 287//507 279//507 271//507 
f 288//508 272//508 282//508 
f 288//509 280//509 272//509 
f 289//510 274//510 290//510 
f 289//511 273//511 274//511 
f 289//512 281//512 273//512 
f 291//513 282//513 275//513 
f 291//514 275//514 283//514 
f 292//515 283//515 276//515 
f 292//516 276//516 284//516 
f 293//517 284//517 279//517 
f 293//518 279//518 287//518 
f 294//519 295//519 286//519 
f 294//520 285//520 280//520 
f 294//521 280//521 288//521 
f 294//522 286//522 285//522 
f 296//523 290//523 297//523 
f 296//524 287//524 281//524 
f 296//525 281//525 289//525 
f 296//526 289//526 290//526 
f 298//527 288//527 282//527 
f 298//528 282//528 291//528 
f 299//529 291//529 283//529 
f 299//530 283//530 292//530 
f 300//531 284//531 293//531 
f 300//532 292//532 284//532 
f 301//533 302//533 303//533 
f 301//534 297//534 302//534 
f 301//535 296//535 297//535 
f 301//536 293//536 287//536 
f 301//537 287//537 296//537 
f 304//538 305//538 295//538 
f 304//539 294//539 288//539 
f 304//540 288//540 298//540 
f 304//541 295//541 294//541 
f 306//542 298//542 291//542 
f 306//543 291//543 299//543 
f 307//544 299//544 292//544 
f 307//545 292//545 300//545 
f 308//546 303//546 309//546 
f 308//547 293//547 301//547 
f 308//548 300//548 293//548 
f 308//549 301//549 303//549 
f 310//550 311//550 305//550 
f 310//551 305//551 304//551 
f 310//552 304//552 298//552 
f 310//553 298//553 306//553 
f 312//554 306//554 299//554 
f 312//555 299//555 307//555 
f 313//556 309//556 314//556 
f 313//557 308//557 309//557 
f 313//558 307//558 300//558 
f 313//559 300//559 308//559 
f 315//560 316//560 311//560 
f 315//561 312//561 316//561 
f 315//562 310//562 306//562 
f 315//563 306//563 312//563 
f 315//564 311//564 310//564 
f 317//565 318//565 316//565 
f 317//566 314//566 318//566 
f 317//567 313//567 314//567 
f 317//568 316//568 312//568 
f 317//569 312//569 307//569 
f 317//570 307//570 313//570 
f 319//571 320//571 321//571 
f 322//572 319//572 323//572 
f 322//573 320//573 319//573 
f 324//574 325//574 326//574 
f 324//575 326//575 320//575 
f 327//576 322//576 328//576 
f 327//577 320//577 322//577 
f 329//578 330//578 331//578 
f 332//579 333//579 334//579 
f 335//580 336//580 337//580 
f 335//581 337//581 329//581 
f 335//582 329//582 331//582 
f 338//583 332//583 339//583 
f 340//584 332//584 338//584 
f 340//585 327//585 333//585 
f 340//586 333//586 332//586 
f 341//587 342//587 335//587 
f 343//588 344//588 341//588 
f 343//589 341//589 335//589 
f 345//590 343//590 335//590 
f 346//591 347//591 348//591 
f 349//592 327//592 340//592 
f 349//593 347//593 346//593 
f 349//594 340//594 350//594 
f 349//595 350//595 347//595 
f 351//596 331//596 324//596 
f 351//597 327//597 349//597 
f 351//598 349//598 352//598 
f 351//599 324//599 320//599 
f 351//600 320//600 327//600 
f 353//601 354//601 355//601 
f 353//602 355//602 356//602 
f 357//603 331//603 351//603 
f 357//604 351//604 358//604 
f 357//605 335//605 331//605 
f 359//606 353//606 356//606 
f 360//607 359//607 356//607 
f 360//608 356//608 345//608 
f 361//609 360//609 345//609 
f 361//610 362//610 360//610 
f 363//611 364//611 365//611 
f 366//612 357//612 367//612 
f 366//613 367//613 364//613 
f 366//614 335//614 357//614 
f 366//615 364//615 363//615 
f 368//616 369//616 361//616 
f 370//617 345//617 335//617 
f 370//618 368//618 361//618 
f 370//619 361//619 345//619 
f 370//620 335//620 366//620 
f 371//621 370//621 366//621 
f 372//622 366//622 373//622 
f 372//623 373//623 374//623 
f 375//624 366//624 372//624 
f 376//625 377//625 378//625 
f 376//626 378//626 371//626 
f 376//627 371//627 366//627 
f 376//628 366//628 375//628 
f 343//629 345//629 278//629 
f 343//630 278//630 286//630 
f 344//631 343//631 286//631 
f 344//632 286//632 295//632 
f 344//633 295//633 305//633 
f 341//634 344//634 305//634 
f 342//635 341//635 305//635 
f 342//636 305//636 311//636 
f 342//637 311//637 316//637 
f 335//638 342//638 316//638 
f 336//639 335//639 316//639 
f 336//640 316//640 318//640 
f 336//641 318//641 314//641 
f 337//642 336//642 314//642 
f 329//643 337//643 314//643 
f 329//644 314//644 309//644 
f 330//645 329//645 309//645 
f 330//646 309//646 303//646 
f 331//647 303//647 302//647 
f 331//648 330//648 303//648 
f 324//649 302//649 297//649 
f 324//650 297//650 290//650 
f 324//651 331//651 302//651 
f 325//652 324//652 290//652 
f 326//653 290//653 274//653 
f 326//654 325//654 290//654 
f 320//655 274//655 265//655 
f 320//656 326//656 274//656 
f 321//657 265//657 246//657 
f 321//658 246//658 236//658 
f 321//659 320//659 265//659 
f 319//660 321//660 236//660 
f 323//661 236//661 235//661 
f 323//662 319//662 236//662 
f 322//663 235//663 213//663 
f 322//664 323//664 235//664 
f 328//665 322//665 213//665 
f 328//666 213//666 192//666 
f 328//667 192//667 191//667 
f 327//668 328//668 191//668 
f 327//669 191//669 168//669 
f 333//670 327//670 168//670 
f 334//671 333//671 168//671 
f 334//672 168//672 146//672 
f 332//673 334//673 146//673 
f 332//674 146//674 134//674 
f 339//675 332//675 134//675 
f 339//676 134//676 113//676 
f 339//677 113//677 99//677 
f 338//678 339//678 99//678 
f 338//679 99//679 79//679 
f 340//680 338//680 79//680 
f 340//681 79//681 78//681 
f 350//682 340//682 78//682 
f 350//683 78//683 66//683 
f 347//684 350//684 66//684 
f 347//685 66//685 54//685 
f 347//686 54//686 44//686 
f 348//687 347//687 44//687 
f 348//688 44//688 43//688 
f 346//689 348//689 43//689 
f 346//690 43//690 35//690 
f 349//691 346//691 35//691 
f 349//692 35//692 26//692 
f 352//693 349//693 26//693 
f 352//694 26//694 17//694 
f 351//695 352//695 17//695 
f 351//696 17//696 10//696 
f 358//697 351//697 10//697 
f 358//698 10//698 9//698 
f 357//699 358//699 9//699 
f 357//700 9//700 7//700 
f 367//701 357//701 7//701 
f 367//702 7//702 3//702 
f 364//703 2//703 5//703 
f 364//704 367//704 3//704 
f 364//705 3//705 2//705 
f 365//706 364//706 5//706 
f 363//707 5//707 12//707 
f 363//708 365//708 5//708 
f 366//709 12//709 13//709 
f 366//710 363//710 12//710 
f 373//711 13//711 19//711 
f 373//712 366//712 13//712 
f 374//713 19//713 24//713 
f 374//714 24//714 31//714 
f 374//715 373//715 19//715 
f 372//716 374//716 31//716 
f 375//717 31//717 48//717 
f 375//718 372//718 31//718 
f 376//719 48//719 57//719 
f 376//720 375//720 48//720 
f 377//721 57//721 58//721 
f 377//722 376//722 57//722 
f 378//723 58//723 76//723 
f 378//724 377//724 58//724 
f 371//725 76//725 87//725 
f 371//726 87//726 107//726 
f 371//727 378//727 76//727 
f 370//728 371//728 107//728 
f 368//729 107//729 108//729 
f 368//730 108//730 129//730 
f 368//731 370//731 107//731 
f 369//732 129//732 152//732 
f 369//733 368//733 129//733 
f 361//734 152//734 174//734 
f 361//735 369//735 152//735 
f 362//736 361//736 174//736 
f 360//737 174//737 175//737 
f 360//738 362//738 174//738 
f 359//739 175//739 208//739 
f 359//740 208//740 229//740 
f 359//741 360//741 175//741 
f 353//742 229//742 230//742 
f 353//743 359//743 229//743 
f 354//744 230//744 244//744 
f 354//745 244//745 256//745 
f 354//746 353//746 230//746 
f 355//747 256//747 257//747 
f 355//748 354//748 256//748 
f 356//749 257//749 268//749 
f 356//750 268//750 278//750 
f 356//751 355//751 257//751 
f 345//752 356//752 278//752 
